<svg xmlns="http://www.w3.org/2000/svg" width="100" height="35.933"><path fill="#bfe3d3" d="M0 6.176L23.58 0l6.176 23.579-23.58 6.178z"/><path d="M29.756 7.86v15.72L25.64 7.86h4.116zM6.176 29.758L0 6.177v29.756h7.86v-6.617l-1.684.44zm16.282 6.176h7.298V23.58l-13.318 3.49 6.02 8.864z" fill="#1e398d"/><path d="M29.756 23.579L25.198 6.176h-2.984a2.003 2.003 0 0 0-2.002 1.966V18.67a.99.99 0 0 1-1.812.544l-7.554-11.12a4.375 4.375 0 0 0-3.622-1.917H0l6.176 23.58 3.368-.882v-5.466a.99.99 0 0 1 1.804-.525l3.183 4.685 15.225-3.99z" fill="#6ca044"/><path d="M40.487 14.48h2.278l5.389 6.913v-6.914h2.437v11.228h-2.1l-5.566-7.137v7.137h-2.438V14.48zm13.855 0h7.836v2.197h-5.381v2.278h5.38v2.197h-5.38v2.358h5.38v2.198h-7.835V14.479zm26.585 2.277h-3.416v-2.278h8.983v2.278h-3.096v8.95h-2.47v-8.95zm7.14 3.368v-.032c0-3.192 2.518-5.807 5.983-5.807 3.464 0 5.95 2.583 5.95 5.775v.032c0 3.192-2.518 5.807-5.983 5.807s-5.95-2.583-5.95-5.775zm9.35 0v-.032c0-1.925-1.41-3.528-3.4-3.528-1.988 0-3.368 1.572-3.368 3.496v.032c0 1.925 1.411 3.529 3.4 3.529 1.99 0 3.369-1.572 3.369-3.497zM74.426 22.38c-.85.759-1.626 1.242-2.87 1.242-1.926 0-3.256-1.604-3.256-3.529v-.032c0-1.924 1.363-3.496 3.255-3.496 1.123 0 2.005.48 2.87 1.266v-2.953c-.758-.372-1.674-.592-2.854-.592-3.447 0-5.854 2.616-5.854 5.807v.033c0 3.224 2.454 5.774 5.758 5.774 1.219 0 2.157-.244 2.95-.676v-2.845zM40.297 35.028l.598-.71c.541.468 1.082.734 1.785.734.613 0 1.001-.282 1.001-.71v-.016c0-.404-.226-.623-1.276-.865-1.203-.29-1.882-.646-1.882-1.688v-.016c0-.97.808-1.64 1.93-1.64.825 0 1.48.25 2.053.711l-.534.751c-.509-.38-1.017-.581-1.534-.581-.581 0-.92.299-.92.67v.016c0 .436.257.63 1.34.889 1.195.29 1.817.719 1.817 1.656v.015c0 1.059-.832 1.69-2.02 1.69-.864 0-1.68-.3-2.358-.906zm8.111-1.406l-2.247-3.424h1.173l1.582 2.504 1.6-2.504h1.138l-2.244 3.4v2.255h-1.002v-2.23zm4.582 1.406l.597-.71c.543.468 1.083.734 1.785.734.615 0 1.002-.282 1.002-.71v-.016c0-.404-.226-.623-1.276-.865-1.203-.29-1.882-.646-1.882-1.688v-.016c0-.97.807-1.64 1.931-1.64.823 0 1.478.25 2.051.711l-.533.751c-.508-.38-1.017-.581-1.535-.581-.58 0-.92.299-.92.67v.016c0 .436.26.63 1.341.889 1.195.29 1.817.719 1.817 1.656v.015c0 1.059-.832 1.69-2.02 1.69-.863 0-1.68-.3-2.358-.906zm8.136-3.91h-1.793v-.92h4.588v.92h-1.793v4.734h-1.002v-4.734zm5.059-.92h4.193v.888H67.18v1.47h2.835v.89H67.18v1.518h3.239v.889h-4.233v-5.655zm6.457 0H73.7l1.72 2.674 1.721-2.674h1.058v5.655h-.993v-4.056l-1.785 2.666h-.033l-1.769-2.65v4.04h-.977v-5.655zm7.518 4.83l.599-.71c.541.468 1.083.734 1.785.734.614 0 1.002-.282 1.002-.71v-.016c0-.404-.227-.623-1.277-.865-1.203-.29-1.881-.646-1.881-1.688v-.016c0-.97.807-1.64 1.93-1.64.824 0 1.478.25 2.052.711l-.533.751c-.51-.38-1.018-.581-1.535-.581-.582 0-.92.299-.92.67v.016c0 .436.257.63 1.34.889 1.196.29 1.817.719 1.817 1.656v.015c0 1.059-.832 1.69-2.02 1.69a3.484 3.484 0 0 1-2.358-.906z" fill="#1e398d"/></svg>