<?xml version="1.0" encoding="UTF-8" standalone="no"?>
<!-- Generator: Adobe Illustrator 16.0.0, SVG Export Plug-In . SVG Version: 6.00 Build 0)  -->

<svg
   xmlns:dc="http://purl.org/dc/elements/1.1/"
   xmlns:cc="http://creativecommons.org/ns#"
   xmlns:rdf="http://www.w3.org/1999/02/22-rdf-syntax-ns#"
   xmlns:svg="http://www.w3.org/2000/svg"
   xmlns="http://www.w3.org/2000/svg"
   xmlns:sodipodi="http://sodipodi.sourceforge.net/DTD/sodipodi-0.dtd"
   xmlns:inkscape="http://www.inkscape.org/namespaces/inkscape"
   version="1.1"
   id="Layer_1"
   x="0px"
   y="0px"
   width="300"
   height="109.67776"
   viewBox="0 0 299.99999 109.67776"
   enable-background="new 0 0 841.89 595.28"
   xml:space="preserve"
   inkscape:version="0.91 r13725"
   sodipodi:docname="Necto_Horizontal_MONO_branco_w300.svg"><title
     id="title6415">Necto Systems</title><metadata
     id="metadata19623"><rdf:RDF><cc:Work
         rdf:about=""><dc:format>image/svg+xml</dc:format><dc:type
           rdf:resource="http://purl.org/dc/dcmitype/StillImage" /><dc:title>Necto Systems</dc:title><dc:creator><cc:Agent><dc:title>Necto Systems</dc:title></cc:Agent></dc:creator><dc:rights><cc:Agent><dc:title>ZNC Sistemas Necto Systems</dc:title></cc:Agent></dc:rights><dc:publisher><cc:Agent><dc:title>Necto Systems</dc:title></cc:Agent></dc:publisher><dc:language>EN</dc:language><dc:subject><rdf:Bag><rdf:li>Necto Systems Python  Custom Software</rdf:li></rdf:Bag></dc:subject></cc:Work></rdf:RDF></metadata><defs
     id="defs19621" /><sodipodi:namedview
     pagecolor="#ffffff"
     bordercolor="#666666"
     borderopacity="1"
     objecttolerance="10"
     gridtolerance="10"
     guidetolerance="10"
     inkscape:pageopacity="0"
     inkscape:pageshadow="2"
     inkscape:window-width="1378"
     inkscape:window-height="733"
     id="namedview19619"
     showgrid="false"
     inkscape:zoom="2.5404277"
     inkscape:cx="172.03367"
     inkscape:cy="41.320773"
     inkscape:window-x="0"
     inkscape:window-y="0"
     inkscape:window-maximized="0"
     inkscape:current-layer="Layer_1"
     fit-margin-top="0"
     fit-margin-left="0"
     fit-margin-right="0"
     fit-margin-bottom="0" /><g
     id="g19577"
     style="fill:#ffffff;fill-opacity:1"
     transform="matrix(0.73440671,0,0,0.73440671,-159.1452,-163.75066)"><g
       id="g19579"
       style="fill:#ffffff;fill-opacity:1"><path
         d="m 338.252,322.143 -18.517,-70.673 -12.121,0 0,0 c -4.439,0 -8.049,3.56 -8.128,7.984 l 0,42.75 c -0.017,2.206 -1.811,3.985 -4.021,3.985 -1.382,0 -2.606,-0.702 -3.333,-1.771 L 261.46,259.257 c -3.204,-4.696 -8.601,-7.787 -14.715,-7.787 l -29.341,0 0,0 25.082,95.764 13.684,-3.584 0,-22.2 c 0.079,-2.149 1.85,-3.869 4.016,-3.869 1.371,0 2.578,0.688 3.306,1.737 l 12.927,19.027 61.833,-16.202 z"
         id="path19581"
         style="fill:#ffffff;fill-opacity:1"
         inkscape:connector-curvature="0" /><polygon
         points="338.252,258.312 324.428,258.312 338.252,311.082 "
         id="polygon19583"
         style="fill:#ffffff;fill-opacity:1" /><polygon
         points="338.252,372.311 338.252,325.039 285.832,338.773 308.607,372.311 "
         id="polygon19585"
         style="fill:#ffffff;fill-opacity:1" /><polygon
         points="240.489,350.651 217.404,262.531 217.404,372.311 249.328,372.311 249.328,348.336 "
         id="polygon19587"
         style="fill:#ffffff;fill-opacity:1" /><polygon
         points="217.404,251.47 313.17,226.388 319.735,251.47 322.635,251.47 315.172,222.97 216.699,248.76 217.404,251.47 "
         id="polygon19589"
         style="fill:#ffffff;fill-opacity:1" /></g><g
       id="g19591"
       style="fill:#ffffff;fill-opacity:1"><path
         d="m 382.083,284.678 9.307,0 22.008,28.24 0,-28.24 9.956,0 0,45.863 -8.579,0 -22.73,-29.157 0,29.157 -9.961,0 0,-45.863 z"
         id="path19593"
         style="fill:#ffffff;fill-opacity:1"
         inkscape:connector-curvature="0" /><path
         d="m 438.678,284.678 32.01,0 0,8.977 -21.98,0 0,9.303 21.98,0 0,8.977 -21.98,0 0,9.634 21.98,0 0,8.974 -32.01,0 0,-45.865 z"
         id="path19595"
         style="fill:#ffffff;fill-opacity:1"
         inkscape:connector-curvature="0" /><path
         d="m 547.275,293.98 -13.953,0 0,-9.303 36.695,0 0,9.303 -12.65,0 0,36.561 -10.092,0 0,-36.561 z"
         id="path19597"
         style="fill:#ffffff;fill-opacity:1"
         inkscape:connector-curvature="0" /><path
         d="m 576.436,307.74 0,-0.13 c 0,-13.043 10.295,-23.723 24.445,-23.723 14.152,0 24.311,10.553 24.311,23.591 l 0,0.132 c 0,13.041 -10.293,23.721 -24.439,23.721 -14.159,0 -24.317,-10.548 -24.317,-23.591 z m 38.209,0 0,-0.13 c 0,-7.862 -5.771,-14.41 -13.893,-14.41 -8.129,0 -13.762,6.415 -13.762,14.278 l 0,0.132 c 0,7.863 5.764,14.417 13.891,14.417 8.123,0 13.764,-6.423 13.764,-14.287 z"
         id="path19599"
         style="fill:#ffffff;fill-opacity:1"
         inkscape:connector-curvature="0" /><path
         d="m 520.717,316.948 c -3.469,3.103 -6.639,5.079 -11.727,5.079 -7.857,0 -13.301,-6.554 -13.301,-14.417 l 0,-0.132 c 0,-7.863 5.572,-14.278 13.301,-14.278 4.586,0 8.195,1.96 11.727,5.172 l 0,-12.067 c -3.098,-1.518 -6.842,-2.417 -11.66,-2.417 -14.082,0 -23.914,10.68 -23.914,23.723 l 0,0.13 c 0,13.173 10.023,23.591 23.525,23.591 4.975,0 8.811,-0.995 12.049,-2.767 l 0,-11.617 z"
         id="path19601"
         style="fill:#ffffff;fill-opacity:1"
         inkscape:connector-curvature="0" /><g
         id="g19603"
         style="fill:#ffffff;fill-opacity:1"><path
           d="m 381.31,368.619 2.438,-2.908 c 2.216,1.918 4.422,3.004 7.298,3.004 2.499,0 4.09,-1.153 4.09,-2.902 l 0,-0.067 c 0,-1.646 -0.926,-2.541 -5.212,-3.528 -4.924,-1.187 -7.693,-2.64 -7.693,-6.897 l 0,-0.065 c 0,-3.959 3.3,-6.7 7.885,-6.7 3.367,0 6.041,1.026 8.382,2.907 l -2.177,3.065 c -2.082,-1.554 -4.157,-2.377 -6.267,-2.377 -2.381,0 -3.763,1.224 -3.763,2.741 l 0,0.064 c 0,1.779 1.055,2.575 5.477,3.633 4.885,1.188 7.423,2.936 7.423,6.766 l 0,0.059 c 0,4.329 -3.4,6.898 -8.246,6.898 -3.531,-0.001 -6.865,-1.22 -9.635,-3.693 z"
           id="path19605"
           style="fill:#ffffff;fill-opacity:1"
           inkscape:connector-curvature="0" /><path
           d="m 414.436,362.874 -9.171,-13.99 4.783,0 6.463,10.229 6.538,-10.229 4.648,0 -9.172,13.895 0,9.205 -4.089,0 0,-9.11 z"
           id="path19607"
           style="fill:#ffffff;fill-opacity:1"
           inkscape:connector-curvature="0" /><path
           d="m 433.156,368.619 2.441,-2.908 c 2.211,1.918 4.422,3.004 7.293,3.004 2.506,0 4.09,-1.153 4.09,-2.902 l 0,-0.067 c 0,-1.646 -0.926,-2.541 -5.211,-3.528 -4.92,-1.187 -7.688,-2.64 -7.688,-6.897 l 0,-0.065 c 0,-3.959 3.299,-6.7 7.885,-6.7 3.367,0 6.035,1.026 8.381,2.907 l -2.178,3.065 c -2.08,-1.554 -4.156,-2.377 -6.271,-2.377 -2.369,0 -3.762,1.224 -3.762,2.741 l 0,0.064 c 0,1.779 1.055,2.575 5.482,3.633 4.879,1.188 7.422,2.936 7.422,6.766 l 0,0.059 c 0,4.329 -3.395,6.898 -8.252,6.898 -3.528,-0.001 -6.862,-1.22 -9.632,-3.693 z"
           id="path19609"
           style="fill:#ffffff;fill-opacity:1"
           inkscape:connector-curvature="0" /><path
           d="m 466.395,352.648 -7.32,0 0,-3.765 18.736,0 0,3.765 -7.326,0 0,19.335 -4.09,0 0,-19.335 z"
           id="path19611"
           style="fill:#ffffff;fill-opacity:1"
           inkscape:connector-curvature="0" /><path
           d="m 487.061,348.884 17.117,0 0,3.629 -13.062,0 0,6.007 11.58,0 0,3.633 -11.58,0 0,6.204 13.232,0 0,3.627 -17.287,0 0,-23.1 z"
           id="path19613"
           style="fill:#ffffff;fill-opacity:1"
           inkscape:connector-curvature="0" /><path
           d="m 513.434,348.884 4.32,0 7.029,10.925 7.027,-10.925 4.326,0 0,23.1 -4.061,0 0,-16.562 -7.293,10.886 -0.131,0 -7.225,-10.824 0,16.501 -3.994,0 0,-23.101 z"
           id="path19615"
           style="fill:#ffffff;fill-opacity:1"
           inkscape:connector-curvature="0" /><path
           d="m 544.146,368.619 2.447,-2.908 c 2.205,1.918 4.416,3.004 7.287,3.004 2.51,0 4.096,-1.153 4.096,-2.902 l 0,-0.067 c 0,-1.646 -0.926,-2.541 -5.213,-3.528 -4.924,-1.187 -7.693,-2.64 -7.693,-6.897 l 0,-0.065 c 0,-3.959 3.305,-6.7 7.885,-6.7 3.367,0 6.041,1.026 8.383,2.907 l -2.172,3.065 c -2.088,-1.554 -4.162,-2.377 -6.271,-2.377 -2.375,0 -3.764,1.224 -3.764,2.741 l 0,0.064 c 0,1.779 1.055,2.575 5.479,3.633 4.883,1.188 7.422,2.936 7.422,6.766 l 0,0.059 c 0,4.329 -3.4,6.898 -8.246,6.898 -3.532,-0.001 -6.866,-1.22 -9.64,-3.693 z"
           id="path19617"
           style="fill:#ffffff;fill-opacity:1"
           inkscape:connector-curvature="0" /></g></g></g></svg>